<mxfile host="app.diagrams.net" agent="Mozilla/5.0 (Windows NT 10.0; Win64; x64) AppleWebKit/537.36 (KHTML, like Gecko) Chrome/127.0.0.0 Safari/537.36" version="24.7.5" pages="5">
  <diagram name="UC" id="n4_rWDBr-BANmF3BK3K_">
    <mxGraphModel dx="756" dy="1510" grid="1" gridSize="10" guides="1" tooltips="1" connect="1" arrows="1" fold="1" page="1" pageScale="1" pageWidth="850" pageHeight="1100" math="0" shadow="0">
      <root>
        <mxCell id="0" />
        <mxCell id="1" parent="0" />
        <mxCell id="fwSMn7oImi-PyD_-Guet-1" value="Use Case&amp;nbsp;&lt;span style=&quot;background-color: initial;&quot;&gt;Sidita&lt;/span&gt;" style="swimlane;whiteSpace=wrap;html=1;" parent="1" vertex="1">
          <mxGeometry x="150" y="-20" width="470" height="1080" as="geometry" />
        </mxCell>
        <mxCell id="fwSMn7oImi-PyD_-Guet-9" value="Manajemen User" style="ellipse;whiteSpace=wrap;html=1;" parent="fwSMn7oImi-PyD_-Guet-1" vertex="1">
          <mxGeometry x="70" y="70" width="120" height="60" as="geometry" />
        </mxCell>
        <mxCell id="fwSMn7oImi-PyD_-Guet-10" value="Manajemen DPT" style="ellipse;whiteSpace=wrap;html=1;" parent="fwSMn7oImi-PyD_-Guet-1" vertex="1">
          <mxGeometry x="60" y="260" width="120" height="60" as="geometry" />
        </mxCell>
        <mxCell id="fwSMn7oImi-PyD_-Guet-11" value="Manajemen Spesifikasi" style="ellipse;whiteSpace=wrap;html=1;" parent="fwSMn7oImi-PyD_-Guet-1" vertex="1">
          <mxGeometry x="60" y="340" width="120" height="60" as="geometry" />
        </mxCell>
        <mxCell id="fwSMn7oImi-PyD_-Guet-12" value="Manajemen Pengumuman" style="ellipse;whiteSpace=wrap;html=1;" parent="fwSMn7oImi-PyD_-Guet-1" vertex="1">
          <mxGeometry x="60" y="410" width="120" height="60" as="geometry" />
        </mxCell>
        <mxCell id="fwSMn7oImi-PyD_-Guet-13" value="Penerimaan DPT" style="ellipse;whiteSpace=wrap;html=1;" parent="fwSMn7oImi-PyD_-Guet-1" vertex="1">
          <mxGeometry x="70" y="150" width="120" height="60" as="geometry" />
        </mxCell>
        <mxCell id="fwSMn7oImi-PyD_-Guet-15" value="" style="endArrow=none;html=1;rounded=0;entryX=0;entryY=0.5;entryDx=0;entryDy=0;" parent="fwSMn7oImi-PyD_-Guet-1" edge="1" target="fwSMn7oImi-PyD_-Guet-9">
          <mxGeometry width="50" height="50" relative="1" as="geometry">
            <mxPoint x="-40" y="220" as="sourcePoint" />
            <mxPoint x="70" y="90" as="targetPoint" />
          </mxGeometry>
        </mxCell>
        <mxCell id="fwSMn7oImi-PyD_-Guet-19" value="Lihat Beranda" style="ellipse;whiteSpace=wrap;html=1;" parent="fwSMn7oImi-PyD_-Guet-1" vertex="1">
          <mxGeometry x="275" y="410" width="120" height="60" as="geometry" />
        </mxCell>
        <mxCell id="fwSMn7oImi-PyD_-Guet-20" value="Login" style="ellipse;whiteSpace=wrap;html=1;" parent="fwSMn7oImi-PyD_-Guet-1" vertex="1">
          <mxGeometry x="250" y="495" width="120" height="60" as="geometry" />
        </mxCell>
        <mxCell id="fwSMn7oImi-PyD_-Guet-22" value="Ganti Password" style="ellipse;whiteSpace=wrap;html=1;" parent="fwSMn7oImi-PyD_-Guet-1" vertex="1">
          <mxGeometry x="60" y="700" width="120" height="60" as="geometry" />
        </mxCell>
        <mxCell id="fwSMn7oImi-PyD_-Guet-23" value="" style="endArrow=none;html=1;rounded=0;exitX=1.008;exitY=0.667;exitDx=0;exitDy=0;exitPerimeter=0;" parent="fwSMn7oImi-PyD_-Guet-1" source="fwSMn7oImi-PyD_-Guet-19" edge="1">
          <mxGeometry width="50" height="50" relative="1" as="geometry">
            <mxPoint x="390" y="380" as="sourcePoint" />
            <mxPoint x="540" y="520" as="targetPoint" />
          </mxGeometry>
        </mxCell>
        <mxCell id="fwSMn7oImi-PyD_-Guet-27" value="Manajemen Profile" style="ellipse;whiteSpace=wrap;html=1;" parent="fwSMn7oImi-PyD_-Guet-1" vertex="1">
          <mxGeometry x="50" y="595" width="140" height="70" as="geometry" />
        </mxCell>
        <mxCell id="fwSMn7oImi-PyD_-Guet-31" value="Lihat Daftar DPT" style="ellipse;whiteSpace=wrap;html=1;" parent="fwSMn7oImi-PyD_-Guet-1" vertex="1">
          <mxGeometry x="340" y="960" width="110" height="60" as="geometry" />
        </mxCell>
        <mxCell id="eaosKZt99xUcKmeipWFX-1" value="CRUD Profile" style="rounded=0;whiteSpace=wrap;html=1;fillColor=#e1d5e7;strokeColor=#9673a6;" parent="fwSMn7oImi-PyD_-Guet-1" vertex="1">
          <mxGeometry x="155" y="20" width="100" height="50" as="geometry" />
        </mxCell>
        <mxCell id="eaosKZt99xUcKmeipWFX-2" value="- CRUD DPT (Daftar Penyedia Tetap)" style="rounded=0;whiteSpace=wrap;html=1;fillColor=#e1d5e7;strokeColor=#9673a6;align=left;" parent="fwSMn7oImi-PyD_-Guet-1" vertex="1">
          <mxGeometry x="50" y="230" width="150" height="50" as="geometry" />
        </mxCell>
        <mxCell id="eaosKZt99xUcKmeipWFX-3" value="&lt;div style=&quot;text-align: left;&quot;&gt;- DPT bisa apply sesuai spesifikasi&amp;nbsp;&lt;/div&gt;&lt;div style=&quot;text-align: left;&quot;&gt;&lt;span style=&quot;color: rgb(0, 0, 0); font-family: Helvetica; font-size: 12px; font-style: normal; font-variant-ligatures: normal; font-variant-caps: normal; font-weight: 400; letter-spacing: normal; orphans: 2; text-indent: 0px; text-transform: none; widows: 2; word-spacing: 0px; -webkit-text-stroke-width: 0px; white-space: normal; background-color: rgb(251, 251, 251); text-decoration-thickness: initial; text-decoration-style: initial; text-decoration-color: initial; float: none; display: inline !important;&quot;&gt;- Penerimaan bisa di open/close&lt;/span&gt;&lt;/div&gt;" style="rounded=0;whiteSpace=wrap;html=1;fillColor=#e1d5e7;strokeColor=#9673a6;" parent="fwSMn7oImi-PyD_-Guet-1" vertex="1">
          <mxGeometry x="120" y="110" width="200" height="60" as="geometry" />
        </mxCell>
        <mxCell id="eaosKZt99xUcKmeipWFX-4" value="&lt;div style=&quot;text-align: left;&quot;&gt;&lt;span style=&quot;background-color: initial;&quot;&gt;- Topik Penyedia&lt;/span&gt;&lt;/div&gt;&lt;div style=&quot;text-align: left;&quot;&gt;&lt;span style=&quot;&quot;&gt;- 1 Spesifikasi bisa menjadi tag beberapa DPT&lt;/span&gt;&lt;br&gt;&lt;/div&gt;" style="rounded=0;whiteSpace=wrap;html=1;fillColor=#e1d5e7;strokeColor=#9673a6;" parent="fwSMn7oImi-PyD_-Guet-1" vertex="1">
          <mxGeometry x="150" y="320" width="160" height="60" as="geometry" />
        </mxCell>
        <mxCell id="MViUQJG8VekjKfO9F0X5-1" value="&lt;div style=&quot;text-align: left;&quot;&gt;CRUD Pengumuman&lt;/div&gt;&lt;div style=&quot;text-align: left;&quot;&gt;nanti tampil di landing page&lt;/div&gt;" style="rounded=0;whiteSpace=wrap;html=1;fillColor=#e1d5e7;strokeColor=#9673a6;" parent="fwSMn7oImi-PyD_-Guet-1" vertex="1">
          <mxGeometry x="60" y="460" width="160" height="60" as="geometry" />
        </mxCell>
        <mxCell id="MViUQJG8VekjKfO9F0X5-3" value="&lt;div&gt;Pekerjaan&lt;/div&gt;" style="ellipse;whiteSpace=wrap;html=1;" parent="fwSMn7oImi-PyD_-Guet-1" vertex="1">
          <mxGeometry x="335" y="80" width="120" height="60" as="geometry" />
        </mxCell>
        <mxCell id="MViUQJG8VekjKfO9F0X5-6" value="Filter Tabel DPT" style="ellipse;whiteSpace=wrap;html=1;" parent="fwSMn7oImi-PyD_-Guet-1" vertex="1">
          <mxGeometry x="150" y="940" width="120" height="50" as="geometry" />
        </mxCell>
        <mxCell id="MViUQJG8VekjKfO9F0X5-8" value="Search&amp;nbsp;&lt;div&gt;Tabel DPT&lt;/div&gt;" style="ellipse;whiteSpace=wrap;html=1;" parent="fwSMn7oImi-PyD_-Guet-1" vertex="1">
          <mxGeometry x="150" y="1010" width="120" height="50" as="geometry" />
        </mxCell>
        <mxCell id="MViUQJG8VekjKfO9F0X5-10" value="extends" style="endArrow=open;endSize=12;dashed=1;html=1;rounded=0;exitX=0.071;exitY=0.797;exitDx=0;exitDy=0;entryX=0.996;entryY=0.405;entryDx=0;entryDy=0;exitPerimeter=0;entryPerimeter=0;" parent="fwSMn7oImi-PyD_-Guet-1" source="fwSMn7oImi-PyD_-Guet-31" target="MViUQJG8VekjKfO9F0X5-8" edge="1">
          <mxGeometry width="160" relative="1" as="geometry">
            <mxPoint x="405" y="910" as="sourcePoint" />
            <mxPoint x="350" y="880" as="targetPoint" />
          </mxGeometry>
        </mxCell>
        <mxCell id="MViUQJG8VekjKfO9F0X5-11" value="View Profile" style="ellipse;whiteSpace=wrap;html=1;" parent="fwSMn7oImi-PyD_-Guet-1" vertex="1">
          <mxGeometry x="290" y="900" width="110" height="40" as="geometry" />
        </mxCell>
        <mxCell id="MViUQJG8VekjKfO9F0X5-9" value="extends" style="endArrow=open;endSize=12;dashed=1;html=1;rounded=0;exitX=0;exitY=0.5;exitDx=0;exitDy=0;" parent="fwSMn7oImi-PyD_-Guet-1" source="fwSMn7oImi-PyD_-Guet-31" target="MViUQJG8VekjKfO9F0X5-6" edge="1">
          <mxGeometry width="160" relative="1" as="geometry">
            <mxPoint x="180" y="870" as="sourcePoint" />
            <mxPoint x="340" y="870" as="targetPoint" />
          </mxGeometry>
        </mxCell>
        <mxCell id="OplAY4tTPYRDMn4Nbbdc-1" value="Isi Review&lt;div&gt;Pekerjaan&lt;/div&gt;" style="ellipse;whiteSpace=wrap;html=1;" vertex="1" parent="fwSMn7oImi-PyD_-Guet-1">
          <mxGeometry x="290" y="810" width="120" height="60" as="geometry" />
        </mxCell>
        <mxCell id="OplAY4tTPYRDMn4Nbbdc-5" value="Pendafraran DPT" style="ellipse;whiteSpace=wrap;html=1;" vertex="1" parent="fwSMn7oImi-PyD_-Guet-1">
          <mxGeometry x="210" y="210" width="120" height="60" as="geometry" />
        </mxCell>
        <mxCell id="OplAY4tTPYRDMn4Nbbdc-6" value="" style="endArrow=classic;html=1;rounded=0;exitX=1;exitY=0.5;exitDx=0;exitDy=0;entryX=0.42;entryY=-0.005;entryDx=0;entryDy=0;entryPerimeter=0;" edge="1" parent="fwSMn7oImi-PyD_-Guet-1" source="fwSMn7oImi-PyD_-Guet-13" target="OplAY4tTPYRDMn4Nbbdc-5">
          <mxGeometry width="50" height="50" relative="1" as="geometry">
            <mxPoint x="210" y="220" as="sourcePoint" />
            <mxPoint x="260" y="170" as="targetPoint" />
          </mxGeometry>
        </mxCell>
        <mxCell id="OplAY4tTPYRDMn4Nbbdc-7" value="Extend" style="edgeLabel;html=1;align=center;verticalAlign=middle;resizable=0;points=[];" vertex="1" connectable="0" parent="OplAY4tTPYRDMn4Nbbdc-6">
          <mxGeometry x="0.4714" y="-1" relative="1" as="geometry">
            <mxPoint as="offset" />
          </mxGeometry>
        </mxCell>
        <mxCell id="G1sauhzzE5es4z24qJR2-7" value="Download Rubrik Penilaian&lt;div&gt;Export pdf sesuai format&lt;/div&gt;" style="rounded=0;whiteSpace=wrap;html=1;fillColor=#e1d5e7;strokeColor=#9673a6;align=left;" vertex="1" parent="fwSMn7oImi-PyD_-Guet-1">
          <mxGeometry x="265" y="790" width="155" height="30" as="geometry" />
        </mxCell>
        <mxCell id="FtfqCp64AOf1NCQgod7M-3" value="" style="endArrow=classic;html=1;rounded=0;" edge="1" parent="fwSMn7oImi-PyD_-Guet-1" source="MViUQJG8VekjKfO9F0X5-3" target="OplAY4tTPYRDMn4Nbbdc-1">
          <mxGeometry width="50" height="50" relative="1" as="geometry">
            <mxPoint x="370" y="190" as="sourcePoint" />
            <mxPoint x="320" y="280" as="targetPoint" />
          </mxGeometry>
        </mxCell>
        <mxCell id="FtfqCp64AOf1NCQgod7M-1" style="edgeStyle=orthogonalEdgeStyle;rounded=0;orthogonalLoop=1;jettySize=auto;html=1;" edge="1" parent="1" source="fwSMn7oImi-PyD_-Guet-2" target="OplAY4tTPYRDMn4Nbbdc-5">
          <mxGeometry relative="1" as="geometry" />
        </mxCell>
        <mxCell id="fwSMn7oImi-PyD_-Guet-2" value="User" style="shape=umlActor;verticalLabelPosition=bottom;verticalAlign=top;html=1;outlineConnect=0;" parent="1" vertex="1">
          <mxGeometry x="700" y="470" width="30" height="60" as="geometry" />
        </mxCell>
        <mxCell id="G1sauhzzE5es4z24qJR2-4" style="edgeStyle=orthogonalEdgeStyle;rounded=0;orthogonalLoop=1;jettySize=auto;html=1;" edge="1" parent="1" source="fwSMn7oImi-PyD_-Guet-3" target="MViUQJG8VekjKfO9F0X5-3">
          <mxGeometry relative="1" as="geometry">
            <Array as="points">
              <mxPoint x="390" y="290" />
              <mxPoint x="390" y="290" />
            </Array>
          </mxGeometry>
        </mxCell>
        <mxCell id="fwSMn7oImi-PyD_-Guet-3" value="Superadmin" style="shape=umlActor;verticalLabelPosition=bottom;verticalAlign=top;html=1;outlineConnect=0;" parent="1" vertex="1">
          <mxGeometry x="70" y="238" width="30" height="60" as="geometry" />
        </mxCell>
        <mxCell id="fwSMn7oImi-PyD_-Guet-40" style="edgeStyle=orthogonalEdgeStyle;rounded=0;orthogonalLoop=1;jettySize=auto;html=1;" parent="1" edge="1">
          <mxGeometry relative="1" as="geometry">
            <mxPoint x="80" y="740" as="sourcePoint" />
            <mxPoint x="715" y="550" as="targetPoint" />
            <Array as="points">
              <mxPoint x="80" y="1080" />
              <mxPoint x="715" y="1080" />
            </Array>
          </mxGeometry>
        </mxCell>
        <mxCell id="fwSMn7oImi-PyD_-Guet-4" value="Penyedia&lt;div&gt;Tetap&lt;/div&gt;" style="shape=umlActor;verticalLabelPosition=bottom;verticalAlign=top;html=1;outlineConnect=0;" parent="1" vertex="1">
          <mxGeometry x="70" y="650" width="30" height="60" as="geometry" />
        </mxCell>
        <mxCell id="fwSMn7oImi-PyD_-Guet-7" style="edgeStyle=orthogonalEdgeStyle;rounded=0;orthogonalLoop=1;jettySize=auto;html=1;" parent="1" source="fwSMn7oImi-PyD_-Guet-3" edge="1">
          <mxGeometry relative="1" as="geometry">
            <mxPoint x="715" y="460" as="targetPoint" />
            <Array as="points">
              <mxPoint x="85" y="-50" />
              <mxPoint x="715" y="-50" />
            </Array>
          </mxGeometry>
        </mxCell>
        <mxCell id="fwSMn7oImi-PyD_-Guet-16" value="" style="endArrow=none;html=1;rounded=0;entryX=0;entryY=0.5;entryDx=0;entryDy=0;" parent="1" target="fwSMn7oImi-PyD_-Guet-10" edge="1">
          <mxGeometry width="50" height="50" relative="1" as="geometry">
            <mxPoint x="120" y="250" as="sourcePoint" />
            <mxPoint x="230" y="120" as="targetPoint" />
          </mxGeometry>
        </mxCell>
        <mxCell id="fwSMn7oImi-PyD_-Guet-17" value="" style="endArrow=none;html=1;rounded=0;entryX=0;entryY=0.5;entryDx=0;entryDy=0;" parent="1" target="fwSMn7oImi-PyD_-Guet-11" edge="1">
          <mxGeometry width="50" height="50" relative="1" as="geometry">
            <mxPoint x="110" y="290" as="sourcePoint" />
            <mxPoint x="240" y="130" as="targetPoint" />
          </mxGeometry>
        </mxCell>
        <mxCell id="fwSMn7oImi-PyD_-Guet-18" value="" style="endArrow=none;html=1;rounded=0;entryX=-0.025;entryY=0.333;entryDx=0;entryDy=0;entryPerimeter=0;" parent="1" target="fwSMn7oImi-PyD_-Guet-12" edge="1">
          <mxGeometry width="50" height="50" relative="1" as="geometry">
            <mxPoint x="110" y="300" as="sourcePoint" />
            <mxPoint x="250" y="140" as="targetPoint" />
          </mxGeometry>
        </mxCell>
        <mxCell id="fwSMn7oImi-PyD_-Guet-24" value="" style="endArrow=none;html=1;rounded=0;exitX=1;exitY=0.5;exitDx=0;exitDy=0;" parent="1" source="fwSMn7oImi-PyD_-Guet-20" edge="1">
          <mxGeometry width="50" height="50" relative="1" as="geometry">
            <mxPoint x="550" y="410" as="sourcePoint" />
            <mxPoint x="690" y="510" as="targetPoint" />
          </mxGeometry>
        </mxCell>
        <mxCell id="fwSMn7oImi-PyD_-Guet-30" value="PPK" style="shape=umlActor;verticalLabelPosition=bottom;verticalAlign=top;html=1;outlineConnect=0;" parent="1" vertex="1">
          <mxGeometry x="660" y="860" width="30" height="60" as="geometry" />
        </mxCell>
        <mxCell id="fwSMn7oImi-PyD_-Guet-33" value="" style="endArrow=none;html=1;rounded=0;entryX=0;entryY=0.5;entryDx=0;entryDy=0;" parent="1" target="fwSMn7oImi-PyD_-Guet-27" edge="1">
          <mxGeometry width="50" height="50" relative="1" as="geometry">
            <mxPoint x="110" y="660" as="sourcePoint" />
            <mxPoint x="700" y="510" as="targetPoint" />
          </mxGeometry>
        </mxCell>
        <mxCell id="fwSMn7oImi-PyD_-Guet-36" value="" style="endArrow=none;html=1;rounded=0;entryX=1;entryY=0.5;entryDx=0;entryDy=0;" parent="1" target="fwSMn7oImi-PyD_-Guet-31" edge="1">
          <mxGeometry width="50" height="50" relative="1" as="geometry">
            <mxPoint x="650" y="910" as="sourcePoint" />
            <mxPoint x="210" y="840" as="targetPoint" />
          </mxGeometry>
        </mxCell>
        <mxCell id="fwSMn7oImi-PyD_-Guet-39" style="edgeStyle=orthogonalEdgeStyle;rounded=0;orthogonalLoop=1;jettySize=auto;html=1;entryX=1;entryY=0.3333333333333333;entryDx=0;entryDy=0;entryPerimeter=0;" parent="1" source="fwSMn7oImi-PyD_-Guet-30" target="fwSMn7oImi-PyD_-Guet-2" edge="1">
          <mxGeometry relative="1" as="geometry" />
        </mxCell>
        <mxCell id="eaosKZt99xUcKmeipWFX-5" value="" style="endArrow=none;html=1;rounded=0;entryX=-0.025;entryY=0.617;entryDx=0;entryDy=0;entryPerimeter=0;" parent="1" target="fwSMn7oImi-PyD_-Guet-13" edge="1">
          <mxGeometry width="50" height="50" relative="1" as="geometry">
            <mxPoint x="120" y="230" as="sourcePoint" />
            <mxPoint x="230" y="80" as="targetPoint" />
          </mxGeometry>
        </mxCell>
        <mxCell id="eaosKZt99xUcKmeipWFX-6" value="DPT = List Penyedia dari yang terdaftar" style="rounded=0;whiteSpace=wrap;html=1;" parent="1" vertex="1">
          <mxGeometry x="730" y="10" width="120" height="60" as="geometry" />
        </mxCell>
        <mxCell id="eaosKZt99xUcKmeipWFX-12" value="Pejabat Pembuat Keputusan" style="rounded=0;whiteSpace=wrap;html=1;fillColor=#e1d5e7;strokeColor=#9673a6;align=left;" parent="1" vertex="1">
          <mxGeometry x="700" y="910" width="90" height="70" as="geometry" />
        </mxCell>
        <mxCell id="MViUQJG8VekjKfO9F0X5-2" value="Operator" style="shape=umlActor;verticalLabelPosition=bottom;verticalAlign=top;html=1;outlineConnect=0;" parent="1" vertex="1">
          <mxGeometry x="640" y="70" width="30" height="60" as="geometry" />
        </mxCell>
        <mxCell id="MViUQJG8VekjKfO9F0X5-5" value="1 Pekerjaan 1 review" style="rounded=0;whiteSpace=wrap;html=1;fillColor=#e1d5e7;strokeColor=#9673a6;" parent="1" vertex="1">
          <mxGeometry x="570" width="100" height="50" as="geometry" />
        </mxCell>
        <mxCell id="MViUQJG8VekjKfO9F0X5-12" value="" style="endArrow=none;html=1;rounded=0;entryX=1;entryY=0.5;entryDx=0;entryDy=0;" parent="1" target="MViUQJG8VekjKfO9F0X5-11" edge="1">
          <mxGeometry width="50" height="50" relative="1" as="geometry">
            <mxPoint x="650" y="910" as="sourcePoint" />
            <mxPoint x="610" y="980" as="targetPoint" />
          </mxGeometry>
        </mxCell>
        <mxCell id="MViUQJG8VekjKfO9F0X5-14" value="" style="endArrow=none;html=1;rounded=0;exitX=1;exitY=0.5;exitDx=0;exitDy=0;" parent="1" source="MViUQJG8VekjKfO9F0X5-3" edge="1">
          <mxGeometry width="50" height="50" relative="1" as="geometry">
            <mxPoint x="590" y="195" as="sourcePoint" />
            <mxPoint x="630" y="110" as="targetPoint" />
          </mxGeometry>
        </mxCell>
        <mxCell id="OplAY4tTPYRDMn4Nbbdc-3" value="" style="endArrow=none;html=1;rounded=0;entryX=1;entryY=0.5;entryDx=0;entryDy=0;" edge="1" parent="1" target="OplAY4tTPYRDMn4Nbbdc-1">
          <mxGeometry width="50" height="50" relative="1" as="geometry">
            <mxPoint x="650" y="910" as="sourcePoint" />
            <mxPoint x="430" y="790" as="targetPoint" />
          </mxGeometry>
        </mxCell>
        <mxCell id="G1sauhzzE5es4z24qJR2-2" value="Akses: Super Admin dan Operator&lt;br&gt;Akses: PPK (Lihat dan Edit)&lt;br&gt;Export Excel" style="rounded=0;whiteSpace=wrap;html=1;fillColor=#e1d5e7;strokeColor=#9673a6;" vertex="1" parent="1">
          <mxGeometry x="570" y="248" width="190" height="50" as="geometry" />
        </mxCell>
        <mxCell id="G1sauhzzE5es4z24qJR2-6" style="edgeStyle=orthogonalEdgeStyle;rounded=0;orthogonalLoop=1;jettySize=auto;html=1;entryX=0.621;entryY=1.053;entryDx=0;entryDy=0;entryPerimeter=0;" edge="1" parent="1" source="fwSMn7oImi-PyD_-Guet-30" target="MViUQJG8VekjKfO9F0X5-3">
          <mxGeometry relative="1" as="geometry" />
        </mxCell>
        <mxCell id="FtfqCp64AOf1NCQgod7M-2" value="" style="endArrow=none;html=1;rounded=0;entryX=0;entryY=0.5;entryDx=0;entryDy=0;exitX=1;exitY=1;exitDx=0;exitDy=0;exitPerimeter=0;" edge="1" parent="1" source="fwSMn7oImi-PyD_-Guet-4" target="fwSMn7oImi-PyD_-Guet-22">
          <mxGeometry width="50" height="50" relative="1" as="geometry">
            <mxPoint x="90" y="720" as="sourcePoint" />
            <mxPoint x="140" y="670" as="targetPoint" />
          </mxGeometry>
        </mxCell>
      </root>
    </mxGraphModel>
  </diagram>
  <diagram id="Q6UjVkji3Te8jQX5_zQ-" name="Flow">
    <mxGraphModel dx="1444" dy="782" grid="1" gridSize="10" guides="1" tooltips="1" connect="1" arrows="1" fold="1" page="1" pageScale="1" pageWidth="850" pageHeight="1100" math="0" shadow="0">
      <root>
        <mxCell id="0" />
        <mxCell id="1" parent="0" />
        <mxCell id="e7emHbPWKAxp-LcXH58k-7" style="edgeStyle=orthogonalEdgeStyle;rounded=0;orthogonalLoop=1;jettySize=auto;html=1;" parent="1" source="bCcD4O1l5owMseOJ6N1a-1" target="E0jHwzpHyXb4rquiknZi-1" edge="1">
          <mxGeometry relative="1" as="geometry" />
        </mxCell>
        <mxCell id="bCcD4O1l5owMseOJ6N1a-1" value="Start" style="ellipse;whiteSpace=wrap;html=1;" parent="1" vertex="1">
          <mxGeometry x="320" y="70" width="100" height="50" as="geometry" />
        </mxCell>
        <mxCell id="e7emHbPWKAxp-LcXH58k-8" style="edgeStyle=orthogonalEdgeStyle;rounded=0;orthogonalLoop=1;jettySize=auto;html=1;" parent="1" source="E0jHwzpHyXb4rquiknZi-1" target="E0jHwzpHyXb4rquiknZi-2" edge="1">
          <mxGeometry relative="1" as="geometry" />
        </mxCell>
        <mxCell id="E0jHwzpHyXb4rquiknZi-1" value="Admin membuat event&lt;div&gt;pendaftaran DPT&lt;/div&gt;" style="shape=parallelogram;perimeter=parallelogramPerimeter;whiteSpace=wrap;html=1;fixedSize=1;" parent="1" vertex="1">
          <mxGeometry x="280" y="160" width="180" height="80" as="geometry" />
        </mxCell>
        <mxCell id="e7emHbPWKAxp-LcXH58k-9" style="edgeStyle=orthogonalEdgeStyle;rounded=0;orthogonalLoop=1;jettySize=auto;html=1;" parent="1" source="E0jHwzpHyXb4rquiknZi-2" target="E0jHwzpHyXb4rquiknZi-3" edge="1">
          <mxGeometry relative="1" as="geometry" />
        </mxCell>
        <mxCell id="E0jHwzpHyXb4rquiknZi-2" value="Penyedia dengan&amp;nbsp;&lt;div&gt;spek sesuai mendaftar&lt;/div&gt;" style="shape=parallelogram;perimeter=parallelogramPerimeter;whiteSpace=wrap;html=1;fixedSize=1;" parent="1" vertex="1">
          <mxGeometry x="280" y="300" width="180" height="80" as="geometry" />
        </mxCell>
        <mxCell id="E0jHwzpHyXb4rquiknZi-3" value="Penyedia Mengisi&amp;nbsp;&lt;div&gt;Form&lt;/div&gt;" style="shape=parallelogram;perimeter=parallelogramPerimeter;whiteSpace=wrap;html=1;fixedSize=1;" parent="1" vertex="1">
          <mxGeometry x="280" y="430" width="180" height="80" as="geometry" />
        </mxCell>
        <mxCell id="e7emHbPWKAxp-LcXH58k-13" style="edgeStyle=orthogonalEdgeStyle;rounded=0;orthogonalLoop=1;jettySize=auto;html=1;" parent="1" source="E0jHwzpHyXb4rquiknZi-5" target="E0jHwzpHyXb4rquiknZi-6" edge="1">
          <mxGeometry relative="1" as="geometry" />
        </mxCell>
        <mxCell id="E0jHwzpHyXb4rquiknZi-5" value="Admin melakukan&amp;nbsp;&lt;div&gt;penilaian&lt;/div&gt;" style="shape=parallelogram;perimeter=parallelogramPerimeter;whiteSpace=wrap;html=1;fixedSize=1;" parent="1" vertex="1">
          <mxGeometry x="270" y="580" width="180" height="80" as="geometry" />
        </mxCell>
        <mxCell id="2fOhCHs3kOF2EX4cd9Fn-21" style="edgeStyle=orthogonalEdgeStyle;rounded=0;orthogonalLoop=1;jettySize=auto;html=1;entryX=0;entryY=0.5;entryDx=0;entryDy=0;" parent="1" source="E0jHwzpHyXb4rquiknZi-6" target="E0jHwzpHyXb4rquiknZi-9" edge="1">
          <mxGeometry relative="1" as="geometry">
            <Array as="points">
              <mxPoint x="100" y="730" />
              <mxPoint x="100" y="1190" />
            </Array>
          </mxGeometry>
        </mxCell>
        <mxCell id="E0jHwzpHyXb4rquiknZi-6" value="" style="rhombus;whiteSpace=wrap;html=1;" parent="1" vertex="1">
          <mxGeometry x="320" y="690" width="80" height="80" as="geometry" />
        </mxCell>
        <mxCell id="E0jHwzpHyXb4rquiknZi-7" value="Sesuai" style="text;html=1;align=center;verticalAlign=middle;whiteSpace=wrap;rounded=0;" parent="1" vertex="1">
          <mxGeometry x="360" y="810" width="60" height="30" as="geometry" />
        </mxCell>
        <mxCell id="2fOhCHs3kOF2EX4cd9Fn-22" style="edgeStyle=orthogonalEdgeStyle;rounded=0;orthogonalLoop=1;jettySize=auto;html=1;entryX=0.5;entryY=0;entryDx=0;entryDy=0;" parent="1" source="E0jHwzpHyXb4rquiknZi-8" target="E0jHwzpHyXb4rquiknZi-9" edge="1">
          <mxGeometry relative="1" as="geometry" />
        </mxCell>
        <mxCell id="E0jHwzpHyXb4rquiknZi-8" value="Masuk ke Daftar DPT" style="shape=parallelogram;perimeter=parallelogramPerimeter;whiteSpace=wrap;html=1;fixedSize=1;" parent="1" vertex="1">
          <mxGeometry x="260" y="910" width="180" height="80" as="geometry" />
        </mxCell>
        <mxCell id="E0jHwzpHyXb4rquiknZi-9" value="Selesai" style="ellipse;whiteSpace=wrap;html=1;" parent="1" vertex="1">
          <mxGeometry x="290" y="1150" width="120" height="80" as="geometry" />
        </mxCell>
        <mxCell id="2fOhCHs3kOF2EX4cd9Fn-2" value="Create DPT Role: Admin" style="swimlane;whiteSpace=wrap;html=1;" parent="1" vertex="1">
          <mxGeometry x="760" y="40" width="290" height="1190" as="geometry" />
        </mxCell>
        <mxCell id="2fOhCHs3kOF2EX4cd9Fn-3" value="Start" style="ellipse;whiteSpace=wrap;html=1;" parent="2fOhCHs3kOF2EX4cd9Fn-2" vertex="1">
          <mxGeometry x="100" y="60" width="100" height="50" as="geometry" />
        </mxCell>
        <mxCell id="2fOhCHs3kOF2EX4cd9Fn-4" value="Tambah DPT" style="shape=parallelogram;perimeter=parallelogramPerimeter;whiteSpace=wrap;html=1;fixedSize=1;" parent="2fOhCHs3kOF2EX4cd9Fn-2" vertex="1">
          <mxGeometry x="55" y="170" width="180" height="80" as="geometry" />
        </mxCell>
        <mxCell id="2fOhCHs3kOF2EX4cd9Fn-5" value="Muncul Form" style="shape=parallelogram;perimeter=parallelogramPerimeter;whiteSpace=wrap;html=1;fixedSize=1;" parent="2fOhCHs3kOF2EX4cd9Fn-2" vertex="1">
          <mxGeometry x="55" y="310" width="180" height="80" as="geometry" />
        </mxCell>
        <mxCell id="2fOhCHs3kOF2EX4cd9Fn-6" value="Pilih Penyedia&lt;div&gt;&amp;nbsp;dan Spek&lt;/div&gt;" style="shape=parallelogram;perimeter=parallelogramPerimeter;whiteSpace=wrap;html=1;fixedSize=1;" parent="2fOhCHs3kOF2EX4cd9Fn-2" vertex="1">
          <mxGeometry x="55" y="440" width="180" height="80" as="geometry" />
        </mxCell>
        <mxCell id="2fOhCHs3kOF2EX4cd9Fn-13" value="Edit DPT Role: Admin" style="swimlane;whiteSpace=wrap;html=1;" parent="1" vertex="1">
          <mxGeometry x="1100" y="40" width="300" height="1190" as="geometry" />
        </mxCell>
        <mxCell id="2fOhCHs3kOF2EX4cd9Fn-14" value="Start" style="ellipse;whiteSpace=wrap;html=1;" parent="2fOhCHs3kOF2EX4cd9Fn-13" vertex="1">
          <mxGeometry x="100" y="60" width="100" height="50" as="geometry" />
        </mxCell>
        <mxCell id="2fOhCHs3kOF2EX4cd9Fn-15" value="Edit DPT" style="shape=parallelogram;perimeter=parallelogramPerimeter;whiteSpace=wrap;html=1;fixedSize=1;" parent="2fOhCHs3kOF2EX4cd9Fn-13" vertex="1">
          <mxGeometry x="55" y="280" width="180" height="80" as="geometry" />
        </mxCell>
        <mxCell id="2fOhCHs3kOF2EX4cd9Fn-16" value="Muncul Form" style="shape=parallelogram;perimeter=parallelogramPerimeter;whiteSpace=wrap;html=1;fixedSize=1;" parent="2fOhCHs3kOF2EX4cd9Fn-13" vertex="1">
          <mxGeometry x="55" y="440" width="180" height="80" as="geometry" />
        </mxCell>
        <mxCell id="2fOhCHs3kOF2EX4cd9Fn-17" value="Pilih Penyedia&lt;div&gt;&amp;nbsp;dan Spek&lt;/div&gt;" style="shape=parallelogram;perimeter=parallelogramPerimeter;whiteSpace=wrap;html=1;fixedSize=1;" parent="2fOhCHs3kOF2EX4cd9Fn-13" vertex="1">
          <mxGeometry x="55" y="550" width="180" height="80" as="geometry" />
        </mxCell>
        <mxCell id="2fOhCHs3kOF2EX4cd9Fn-18" value="List DPT" style="shape=parallelogram;perimeter=parallelogramPerimeter;whiteSpace=wrap;html=1;fixedSize=1;" parent="2fOhCHs3kOF2EX4cd9Fn-13" vertex="1">
          <mxGeometry x="55" y="140" width="180" height="80" as="geometry" />
        </mxCell>
        <mxCell id="2fOhCHs3kOF2EX4cd9Fn-19" value="Awal mula memunculkan tabel list DPT" style="rounded=0;whiteSpace=wrap;html=1;fillColor=#e1d5e7;strokeColor=#9673a6;align=left;" parent="1" vertex="1">
          <mxGeometry x="1350" y="150" width="120" height="60" as="geometry" />
        </mxCell>
        <mxCell id="2fOhCHs3kOF2EX4cd9Fn-20" style="edgeStyle=orthogonalEdgeStyle;rounded=0;orthogonalLoop=1;jettySize=auto;html=1;entryX=0.556;entryY=-0.05;entryDx=0;entryDy=0;entryPerimeter=0;" parent="1" source="E0jHwzpHyXb4rquiknZi-6" target="E0jHwzpHyXb4rquiknZi-8" edge="1">
          <mxGeometry relative="1" as="geometry" />
        </mxCell>
        <mxCell id="e7emHbPWKAxp-LcXH58k-12" style="edgeStyle=orthogonalEdgeStyle;rounded=0;orthogonalLoop=1;jettySize=auto;html=1;entryX=0.556;entryY=0.025;entryDx=0;entryDy=0;entryPerimeter=0;" parent="1" source="E0jHwzpHyXb4rquiknZi-3" target="E0jHwzpHyXb4rquiknZi-5" edge="1">
          <mxGeometry relative="1" as="geometry" />
        </mxCell>
        <mxCell id="e7emHbPWKAxp-LcXH58k-14" value="Tidak Sesuai" style="text;html=1;align=center;verticalAlign=middle;whiteSpace=wrap;rounded=0;" parent="1" vertex="1">
          <mxGeometry x="260" y="740" width="60" height="30" as="geometry" />
        </mxCell>
      </root>
    </mxGraphModel>
  </diagram>
  <diagram id="w-nN0ui2ubadPygEfJH-" name="Registrasi">
    <mxGraphModel dx="1134" dy="614" grid="1" gridSize="10" guides="1" tooltips="1" connect="1" arrows="1" fold="1" page="1" pageScale="1" pageWidth="827" pageHeight="1169" math="0" shadow="0">
      <root>
        <mxCell id="0" />
        <mxCell id="1" parent="0" />
        <mxCell id="6hxgeYt-v0k9KvH_Zy4t-1" value="Registrasi Penyedia" style="swimlane;whiteSpace=wrap;html=1;" vertex="1" parent="1">
          <mxGeometry x="250" y="80" width="290" height="690" as="geometry" />
        </mxCell>
        <mxCell id="6hxgeYt-v0k9KvH_Zy4t-6" value="" style="edgeStyle=orthogonalEdgeStyle;rounded=0;orthogonalLoop=1;jettySize=auto;html=1;" edge="1" parent="6hxgeYt-v0k9KvH_Zy4t-1" source="6hxgeYt-v0k9KvH_Zy4t-2" target="6hxgeYt-v0k9KvH_Zy4t-3">
          <mxGeometry relative="1" as="geometry" />
        </mxCell>
        <mxCell id="6hxgeYt-v0k9KvH_Zy4t-2" value="Start" style="ellipse;whiteSpace=wrap;html=1;" vertex="1" parent="6hxgeYt-v0k9KvH_Zy4t-1">
          <mxGeometry x="100" y="60" width="100" height="50" as="geometry" />
        </mxCell>
        <mxCell id="6hxgeYt-v0k9KvH_Zy4t-9" value="" style="edgeStyle=orthogonalEdgeStyle;rounded=0;orthogonalLoop=1;jettySize=auto;html=1;" edge="1" parent="6hxgeYt-v0k9KvH_Zy4t-1" source="6hxgeYt-v0k9KvH_Zy4t-3" target="6hxgeYt-v0k9KvH_Zy4t-7">
          <mxGeometry relative="1" as="geometry" />
        </mxCell>
        <mxCell id="6hxgeYt-v0k9KvH_Zy4t-3" value="&lt;font style=&quot;font-size: 12px;&quot;&gt;&lt;b&gt;&lt;span style=&quot;line-height: 107%;&quot;&gt;Nama&lt;br&gt;Awal Penyedia,&amp;nbsp;&lt;/span&gt;&lt;/b&gt;&lt;b&gt;&lt;span style=&quot;line-height: 107%;&quot;&gt;Nama&lt;br&gt;Penyedia,&amp;nbsp;&lt;/span&gt;&lt;/b&gt;&lt;b&gt;&lt;span style=&quot;line-height: 107%;&quot;&gt;Nama&lt;br&gt;Akhir Penyedia, Email, Password, Konfirmasi Password&lt;/span&gt;&lt;/b&gt;&lt;/font&gt;" style="shape=parallelogram;perimeter=parallelogramPerimeter;whiteSpace=wrap;html=1;fixedSize=1;" vertex="1" parent="6hxgeYt-v0k9KvH_Zy4t-1">
          <mxGeometry x="60" y="150" width="180" height="110" as="geometry" />
        </mxCell>
        <mxCell id="dAj2QxFyCkIbZhZRNUja-2" value="" style="edgeStyle=orthogonalEdgeStyle;rounded=0;orthogonalLoop=1;jettySize=auto;html=1;" edge="1" parent="6hxgeYt-v0k9KvH_Zy4t-1" source="6hxgeYt-v0k9KvH_Zy4t-5" target="dAj2QxFyCkIbZhZRNUja-1">
          <mxGeometry relative="1" as="geometry" />
        </mxCell>
        <mxCell id="6hxgeYt-v0k9KvH_Zy4t-5" value="Login Sistem" style="shape=parallelogram;perimeter=parallelogramPerimeter;whiteSpace=wrap;html=1;fixedSize=1;" vertex="1" parent="6hxgeYt-v0k9KvH_Zy4t-1">
          <mxGeometry x="60" y="460" width="180" height="80" as="geometry" />
        </mxCell>
        <mxCell id="6hxgeYt-v0k9KvH_Zy4t-8" value="" style="edgeStyle=orthogonalEdgeStyle;rounded=0;orthogonalLoop=1;jettySize=auto;html=1;" edge="1" parent="6hxgeYt-v0k9KvH_Zy4t-1" source="6hxgeYt-v0k9KvH_Zy4t-7" target="6hxgeYt-v0k9KvH_Zy4t-5">
          <mxGeometry relative="1" as="geometry" />
        </mxCell>
        <mxCell id="dAj2QxFyCkIbZhZRNUja-5" value="Yes" style="edgeLabel;html=1;align=center;verticalAlign=middle;resizable=0;points=[];" vertex="1" connectable="0" parent="6hxgeYt-v0k9KvH_Zy4t-8">
          <mxGeometry x="-0.1891" y="-2" relative="1" as="geometry">
            <mxPoint as="offset" />
          </mxGeometry>
        </mxCell>
        <mxCell id="dAj2QxFyCkIbZhZRNUja-3" style="edgeStyle=orthogonalEdgeStyle;rounded=0;orthogonalLoop=1;jettySize=auto;html=1;entryX=1;entryY=0.5;entryDx=0;entryDy=0;" edge="1" parent="6hxgeYt-v0k9KvH_Zy4t-1" source="6hxgeYt-v0k9KvH_Zy4t-7" target="6hxgeYt-v0k9KvH_Zy4t-3">
          <mxGeometry relative="1" as="geometry">
            <Array as="points">
              <mxPoint x="270" y="350" />
              <mxPoint x="270" y="205" />
            </Array>
          </mxGeometry>
        </mxCell>
        <mxCell id="dAj2QxFyCkIbZhZRNUja-4" value="No" style="edgeLabel;html=1;align=center;verticalAlign=middle;resizable=0;points=[];" vertex="1" connectable="0" parent="dAj2QxFyCkIbZhZRNUja-3">
          <mxGeometry x="-0.2641" y="-1" relative="1" as="geometry">
            <mxPoint y="1" as="offset" />
          </mxGeometry>
        </mxCell>
        <mxCell id="6hxgeYt-v0k9KvH_Zy4t-7" value="Aktivasi Email" style="rhombus;whiteSpace=wrap;html=1;" vertex="1" parent="6hxgeYt-v0k9KvH_Zy4t-1">
          <mxGeometry x="75" y="310" width="150" height="80" as="geometry" />
        </mxCell>
        <mxCell id="dAj2QxFyCkIbZhZRNUja-1" value="Selesai" style="ellipse;whiteSpace=wrap;html=1;" vertex="1" parent="6hxgeYt-v0k9KvH_Zy4t-1">
          <mxGeometry x="90" y="590" width="120" height="80" as="geometry" />
        </mxCell>
      </root>
    </mxGraphModel>
  </diagram>
  <diagram name="Lupa Password" id="m08qp1JwV3YcJaTLeFY5">
    <mxGraphModel dx="794" dy="430" grid="1" gridSize="10" guides="1" tooltips="1" connect="1" arrows="1" fold="1" page="1" pageScale="1" pageWidth="827" pageHeight="1169" math="0" shadow="0">
      <root>
        <mxCell id="oazvj7BwMe7Rdd60Biv--0" />
        <mxCell id="oazvj7BwMe7Rdd60Biv--1" parent="oazvj7BwMe7Rdd60Biv--0" />
        <mxCell id="oazvj7BwMe7Rdd60Biv--2" value="Lupa Password" style="swimlane;whiteSpace=wrap;html=1;" vertex="1" parent="oazvj7BwMe7Rdd60Biv--1">
          <mxGeometry x="250" y="80" width="290" height="540" as="geometry" />
        </mxCell>
        <mxCell id="oazvj7BwMe7Rdd60Biv--3" value="" style="edgeStyle=orthogonalEdgeStyle;rounded=0;orthogonalLoop=1;jettySize=auto;html=1;" edge="1" parent="oazvj7BwMe7Rdd60Biv--2" source="oazvj7BwMe7Rdd60Biv--4" target="oazvj7BwMe7Rdd60Biv--6">
          <mxGeometry relative="1" as="geometry" />
        </mxCell>
        <mxCell id="oazvj7BwMe7Rdd60Biv--4" value="Start" style="ellipse;whiteSpace=wrap;html=1;" vertex="1" parent="oazvj7BwMe7Rdd60Biv--2">
          <mxGeometry x="100" y="60" width="100" height="50" as="geometry" />
        </mxCell>
        <mxCell id="h4MSbYfFM5Fiqkw07J-D-1" value="" style="edgeStyle=orthogonalEdgeStyle;rounded=0;orthogonalLoop=1;jettySize=auto;html=1;" edge="1" parent="oazvj7BwMe7Rdd60Biv--2" source="oazvj7BwMe7Rdd60Biv--6" target="h4MSbYfFM5Fiqkw07J-D-0">
          <mxGeometry relative="1" as="geometry" />
        </mxCell>
        <mxCell id="oazvj7BwMe7Rdd60Biv--6" value="&lt;b&gt;Masukkan Email&lt;/b&gt;" style="shape=parallelogram;perimeter=parallelogramPerimeter;whiteSpace=wrap;html=1;fixedSize=1;" vertex="1" parent="oazvj7BwMe7Rdd60Biv--2">
          <mxGeometry x="60" y="150" width="180" height="50" as="geometry" />
        </mxCell>
        <mxCell id="oazvj7BwMe7Rdd60Biv--9" value="" style="edgeStyle=orthogonalEdgeStyle;rounded=0;orthogonalLoop=1;jettySize=auto;html=1;entryX=0.5;entryY=0;entryDx=0;entryDy=0;" edge="1" parent="oazvj7BwMe7Rdd60Biv--2" source="oazvj7BwMe7Rdd60Biv--13" target="oazvj7BwMe7Rdd60Biv--14">
          <mxGeometry relative="1" as="geometry">
            <mxPoint x="150" y="460" as="targetPoint" />
          </mxGeometry>
        </mxCell>
        <mxCell id="oazvj7BwMe7Rdd60Biv--10" value="Yes" style="edgeLabel;html=1;align=center;verticalAlign=middle;resizable=0;points=[];" vertex="1" connectable="0" parent="oazvj7BwMe7Rdd60Biv--9">
          <mxGeometry x="-0.1891" y="-2" relative="1" as="geometry">
            <mxPoint as="offset" />
          </mxGeometry>
        </mxCell>
        <mxCell id="oazvj7BwMe7Rdd60Biv--11" style="edgeStyle=orthogonalEdgeStyle;rounded=0;orthogonalLoop=1;jettySize=auto;html=1;entryX=1;entryY=0.5;entryDx=0;entryDy=0;" edge="1" parent="oazvj7BwMe7Rdd60Biv--2" source="oazvj7BwMe7Rdd60Biv--13" target="h4MSbYfFM5Fiqkw07J-D-0">
          <mxGeometry relative="1" as="geometry">
            <Array as="points">
              <mxPoint x="270" y="350" />
              <mxPoint x="270" y="255" />
            </Array>
          </mxGeometry>
        </mxCell>
        <mxCell id="oazvj7BwMe7Rdd60Biv--12" value="No" style="edgeLabel;html=1;align=center;verticalAlign=middle;resizable=0;points=[];" vertex="1" connectable="0" parent="oazvj7BwMe7Rdd60Biv--11">
          <mxGeometry x="-0.2641" y="-1" relative="1" as="geometry">
            <mxPoint y="1" as="offset" />
          </mxGeometry>
        </mxCell>
        <mxCell id="oazvj7BwMe7Rdd60Biv--13" value="Masukkan Password Baru" style="rhombus;whiteSpace=wrap;html=1;" vertex="1" parent="oazvj7BwMe7Rdd60Biv--2">
          <mxGeometry x="75" y="310" width="150" height="80" as="geometry" />
        </mxCell>
        <mxCell id="oazvj7BwMe7Rdd60Biv--14" value="Selesai" style="ellipse;whiteSpace=wrap;html=1;" vertex="1" parent="oazvj7BwMe7Rdd60Biv--2">
          <mxGeometry x="90" y="440" width="120" height="80" as="geometry" />
        </mxCell>
        <mxCell id="h4MSbYfFM5Fiqkw07J-D-2" value="" style="edgeStyle=orthogonalEdgeStyle;rounded=0;orthogonalLoop=1;jettySize=auto;html=1;" edge="1" parent="oazvj7BwMe7Rdd60Biv--2" source="h4MSbYfFM5Fiqkw07J-D-0" target="oazvj7BwMe7Rdd60Biv--13">
          <mxGeometry relative="1" as="geometry" />
        </mxCell>
        <mxCell id="h4MSbYfFM5Fiqkw07J-D-0" value="&lt;b&gt;Kirim Link Reset Password&lt;/b&gt;" style="shape=parallelogram;perimeter=parallelogramPerimeter;whiteSpace=wrap;html=1;fixedSize=1;" vertex="1" parent="oazvj7BwMe7Rdd60Biv--2">
          <mxGeometry x="60" y="230" width="180" height="50" as="geometry" />
        </mxCell>
      </root>
    </mxGraphModel>
  </diagram>
  <diagram id="8NEwLk318Qc8QVKCJXvL" name="Penerimaan DPT">
    <mxGraphModel dx="794" dy="430" grid="1" gridSize="10" guides="1" tooltips="1" connect="1" arrows="1" fold="1" page="1" pageScale="1" pageWidth="827" pageHeight="1169" math="0" shadow="0">
      <root>
        <mxCell id="0" />
        <mxCell id="1" parent="0" />
        <mxCell id="cfzYy9qu_Q-W1-TLRRQ0-1" value="Penerimaan DPT: Admin" style="swimlane;whiteSpace=wrap;html=1;" vertex="1" parent="1">
          <mxGeometry x="250" y="80" width="290" height="625" as="geometry" />
        </mxCell>
        <mxCell id="cfzYy9qu_Q-W1-TLRRQ0-2" value="" style="edgeStyle=orthogonalEdgeStyle;rounded=0;orthogonalLoop=1;jettySize=auto;html=1;" edge="1" parent="cfzYy9qu_Q-W1-TLRRQ0-1" source="cfzYy9qu_Q-W1-TLRRQ0-3" target="cfzYy9qu_Q-W1-TLRRQ0-5">
          <mxGeometry relative="1" as="geometry" />
        </mxCell>
        <mxCell id="cfzYy9qu_Q-W1-TLRRQ0-3" value="Start" style="ellipse;whiteSpace=wrap;html=1;" vertex="1" parent="cfzYy9qu_Q-W1-TLRRQ0-1">
          <mxGeometry x="100" y="60" width="100" height="50" as="geometry" />
        </mxCell>
        <mxCell id="cfzYy9qu_Q-W1-TLRRQ0-4" value="" style="edgeStyle=orthogonalEdgeStyle;rounded=0;orthogonalLoop=1;jettySize=auto;html=1;" edge="1" parent="cfzYy9qu_Q-W1-TLRRQ0-1" source="cfzYy9qu_Q-W1-TLRRQ0-5" target="cfzYy9qu_Q-W1-TLRRQ0-13">
          <mxGeometry relative="1" as="geometry" />
        </mxCell>
        <mxCell id="cfzYy9qu_Q-W1-TLRRQ0-5" value="&lt;b&gt;Buat Event&lt;/b&gt;" style="shape=parallelogram;perimeter=parallelogramPerimeter;whiteSpace=wrap;html=1;fixedSize=1;" vertex="1" parent="cfzYy9qu_Q-W1-TLRRQ0-1">
          <mxGeometry x="60" y="150" width="180" height="50" as="geometry" />
        </mxCell>
        <mxCell id="cfzYy9qu_Q-W1-TLRRQ0-16" value="" style="edgeStyle=orthogonalEdgeStyle;rounded=0;orthogonalLoop=1;jettySize=auto;html=1;" edge="1" parent="cfzYy9qu_Q-W1-TLRRQ0-1" source="cfzYy9qu_Q-W1-TLRRQ0-13" target="cfzYy9qu_Q-W1-TLRRQ0-15">
          <mxGeometry relative="1" as="geometry" />
        </mxCell>
        <mxCell id="cfzYy9qu_Q-W1-TLRRQ0-13" value="&lt;b&gt;Isi Form: Nama Kegiatan, Tanggal Mulai, Tanggal Selesai, Spesifikasi, Upload Dokumen Pendukung PDF&lt;/b&gt;" style="shape=parallelogram;perimeter=parallelogramPerimeter;whiteSpace=wrap;html=1;fixedSize=1;" vertex="1" parent="cfzYy9qu_Q-W1-TLRRQ0-1">
          <mxGeometry x="60" y="220" width="180" height="70" as="geometry" />
        </mxCell>
        <mxCell id="cfzYy9qu_Q-W1-TLRRQ0-14" style="edgeStyle=orthogonalEdgeStyle;rounded=0;orthogonalLoop=1;jettySize=auto;html=1;exitX=0.5;exitY=1;exitDx=0;exitDy=0;" edge="1" parent="cfzYy9qu_Q-W1-TLRRQ0-1" source="cfzYy9qu_Q-W1-TLRRQ0-13" target="cfzYy9qu_Q-W1-TLRRQ0-13">
          <mxGeometry relative="1" as="geometry" />
        </mxCell>
        <mxCell id="cfzYy9qu_Q-W1-TLRRQ0-19" value="" style="edgeStyle=orthogonalEdgeStyle;rounded=0;orthogonalLoop=1;jettySize=auto;html=1;" edge="1" parent="cfzYy9qu_Q-W1-TLRRQ0-1" source="cfzYy9qu_Q-W1-TLRRQ0-15" target="cfzYy9qu_Q-W1-TLRRQ0-18">
          <mxGeometry relative="1" as="geometry" />
        </mxCell>
        <mxCell id="cfzYy9qu_Q-W1-TLRRQ0-15" value="&lt;b&gt;Tampilkan&amp;nbsp;&lt;/b&gt;&lt;div&gt;&lt;b style=&quot;background-color: initial;&quot;&gt;Tabel Penerimaan DPT&lt;/b&gt;&lt;/div&gt;" style="shape=parallelogram;perimeter=parallelogramPerimeter;whiteSpace=wrap;html=1;fixedSize=1;" vertex="1" parent="cfzYy9qu_Q-W1-TLRRQ0-1">
          <mxGeometry x="60" y="310" width="180" height="70" as="geometry" />
        </mxCell>
        <mxCell id="cfzYy9qu_Q-W1-TLRRQ0-24" value="" style="edgeStyle=orthogonalEdgeStyle;rounded=0;orthogonalLoop=1;jettySize=auto;html=1;" edge="1" parent="cfzYy9qu_Q-W1-TLRRQ0-1" source="cfzYy9qu_Q-W1-TLRRQ0-18" target="cfzYy9qu_Q-W1-TLRRQ0-23">
          <mxGeometry relative="1" as="geometry" />
        </mxCell>
        <mxCell id="cfzYy9qu_Q-W1-TLRRQ0-18" value="&lt;b&gt;Detail Isian + &lt;br&gt;Bisa Ganti Status +&lt;br&gt;&lt;/b&gt;Tombol (Daftar Penyedia) +&lt;br&gt;Unggah Berita Acara&lt;b&gt;&lt;br&gt;&lt;/b&gt;" style="shape=parallelogram;perimeter=parallelogramPerimeter;whiteSpace=wrap;html=1;fixedSize=1;" vertex="1" parent="cfzYy9qu_Q-W1-TLRRQ0-1">
          <mxGeometry x="60" y="410" width="180" height="70" as="geometry" />
        </mxCell>
        <mxCell id="cfzYy9qu_Q-W1-TLRRQ0-23" value="Selesai" style="ellipse;whiteSpace=wrap;html=1;" vertex="1" parent="cfzYy9qu_Q-W1-TLRRQ0-1">
          <mxGeometry x="87.5" y="520" width="125" height="80" as="geometry" />
        </mxCell>
        <mxCell id="cfzYy9qu_Q-W1-TLRRQ0-17" value="+ Status (Open, Proses, Selesai)" style="rounded=0;whiteSpace=wrap;html=1;" vertex="1" parent="1">
          <mxGeometry x="500" y="390" width="120" height="60" as="geometry" />
        </mxCell>
      </root>
    </mxGraphModel>
  </diagram>
</mxfile>
